# xmcd
#
# Track frame offsets:
#	150
#	14386
#	28589
#	43062
#	57704
#	74268
#	85857
#	99658
#	117029
#	129159
#	150417
#	165419
#	178262
#	196428
#	209786
#	227748
#	239202
#	253330
#	268348
#	285623
#
# Disc length: 3963 seconds
#
# Revision: 1
# Processed by: cddbd v1.5.2PL0 Copyright (c) Steve Scherf et al.
# Submitted via: audiograbber 1.83.01
#
DISCID=2d0f7914
DTITLE=NAYRA LIMA - EM RITMO DE SERESTA VOL 4
DYEAR=1900
DGENRE=SERESTA
TTITLE0=LAÇO ABERTO
TTITLE1=QUE QUERES TU DE MIM
TTITLE2=AMOR I LOVE YOU
TTITLE3=CAMAS SEPARADAS
TTITLE4=O NORDESTINO
TTITLE5=O RELÓGIO
TTITLE6=A BELEZA DA ROSA
TTITLE7=SE QUALQUER DIA DESSES
TTITLE8=VENTO QUE BALANÇA
TTITLE9=TIRA ESSA PAIXÃO DA CABEÇA
TTITLE10=BRIGUE COMIGO MAS NÃO VÁ
TTITLE11=SE É AMOR NÃO SEI
TTITLE12=LONGE DE VOCÊ
TTITLE13=PEÇO PERDÃO
TTITLE14=SOL DA MINHA VIDA
TTITLE15=AS VEZES TU , AS VEZES EU
TTITLE16=JÁ NASCEU DENTRO DE MIM
TTITLE17=POUCO ME IMPORTA
TTITLE18=MISSISSIPE
TTITLE19=NA HORA DO ADEUS
EXTD=
EXTT0=
EXTT1=
EXTT2=
EXTT3=
EXTT4=
EXTT5=
EXTT6=
EXTT7=
EXTT8=
EXTT9=
EXTT10=
EXTT11=
EXTT12=
EXTT13=
EXTT14=
EXTT15=
EXTT16=
EXTT17=
EXTT18=
EXTT19=
PLAYORDER=
